<?xml version="1.0" encoding="utf-8"?>
<!-- Generator: Adobe Illustrator 27.5.0, SVG Export Plug-In . SVG Version: 6.00 Build 0)  -->
<svg version="1.1" xmlns="http://www.w3.org/2000/svg" xmlns:xlink="http://www.w3.org/1999/xlink" x="0px" y="0px"
	 viewBox="0 0 800 500" style="enable-background:new 0 0 800 500;" xml:space="preserve">
<g id="_x38_2">
	<g>
		<g>
			<defs>
				<rect id="SVGID_1_" width="800" height="500"/>
			</defs>
			<use xlink:href="#SVGID_1_"  style="overflow:visible;fill:#000422;"/>
			<clipPath id="SVGID_00000045601950657525992780000007703215311611871923_">
				<use xlink:href="#SVGID_1_"  style="overflow:visible;"/>
			</clipPath>
			<g style="clip-path:url(#SVGID_00000045601950657525992780000007703215311611871923_);">
				<g>
					<g>
						<g>
							
								<linearGradient id="SVGID_00000158005183853145191490000011789105235702527676_" gradientUnits="userSpaceOnUse" x1="-131.8794" y1="357.6718" x2="850.0536" y2="357.6718">
								<stop  offset="0" style="stop-color:#FF25B6"/>
								<stop  offset="0.013" style="stop-color:#F720C0"/>
								<stop  offset="0.0526" style="stop-color:#E112DB"/>
								<stop  offset="0.093" style="stop-color:#D208EE"/>
								<stop  offset="0.1345" style="stop-color:#C902F9"/>
								<stop  offset="0.1787" style="stop-color:#C600FD"/>
								<stop  offset="0.475" style="stop-color:#432AF3"/>
								<stop  offset="0.6457" style="stop-color:#2747ED"/>
								<stop  offset="1" style="stop-color:#000422"/>
							</linearGradient>
							<path style="fill:url(#SVGID_00000158005183853145191490000011789105235702527676_);" d="M756.197,594.391
								c-1.108,0-2.215-0.043-3.318-0.13c-59.311-4.681-100.641-130.733-130.819-222.772
								c-16.389-49.987-29.304-89.443-38.741-88.198c-9.326,1.259-15.72,44.015-20.122,134.555
								c-4.831,99.419-10.175,113.184-14.766,113.535c-0.054,0.004-0.107,0.007-0.161,0.007
								c-6.892,0.002-14.151-33.921-27.36-98.521c-22.883-111.912-57.464-281.036-112.204-283.945
								c-34.325-1.851-72.618,63.109-113.918,192.986c-40.588,127.637-79.468,190.255-118.859,191.434
								c-0.371,0.011-0.747,0.017-1.119,0.017c-24.397,0.003-49.234-23.851-75.894-72.86
								c-23.807-43.766-45.995-101.361-67.453-157.062C-4.797,209.314-39.053,120.403-73.126,121.973
								c-20.221,0.926-39.124,33.392-57.792,99.253l-0.962-0.273c18.799-66.328,38.003-99.031,58.708-99.979
								c0.306-0.014,0.614-0.021,0.92-0.021c34.487,0,68.574,88.486,104.647,182.123c21.445,55.67,43.622,113.234,67.397,156.942
								c26.868,49.394,51.76,73.098,76.105,72.322c18.383-0.55,37.096-15.326,55.619-43.919
								c20.369-31.441,41.335-80.838,62.317-146.817c21.769-68.458,42.886-119.376,62.763-151.341
								c18.019-28.977,35.538-43.24,52.162-42.34c55.512,2.95,90.185,172.529,113.13,284.743
								c10.717,52.414,19.981,97.721,26.363,97.721c0.034,0,0.068-0.001,0.102-0.004c7.532-0.577,11.508-64.531,13.844-112.587
								c4.55-93.603,10.827-134.126,20.986-135.496c0.181-0.024,0.363-0.037,0.546-0.037c10.126,0,22.401,37.439,39.279,88.914
								c14.543,44.353,32.642,99.551,54.149,143.26c25.095,50.998,49.889,76.782,75.799,78.827
								c30.457,2.388,62.831-29.341,96.207-94.348l0.889,0.457c-17.5,34.086-34.854,59.299-51.583,74.939
								C784.205,587.648,770.001,594.391,756.197,594.391z"/>
						</g>
					</g>
					<g>
						<g>
							
								<linearGradient id="SVGID_00000011752051354958356160000014649053357036799403_" gradientUnits="userSpaceOnUse" x1="-140.0063" y1="350.8997" x2="861.9453" y2="350.8997">
								<stop  offset="0" style="stop-color:#FF25B6"/>
								<stop  offset="0.013" style="stop-color:#F720C0"/>
								<stop  offset="0.0526" style="stop-color:#E112DB"/>
								<stop  offset="0.093" style="stop-color:#D208EE"/>
								<stop  offset="0.1345" style="stop-color:#C902F9"/>
								<stop  offset="0.1787" style="stop-color:#C600FD"/>
								<stop  offset="0.475" style="stop-color:#432AF3"/>
								<stop  offset="0.6457" style="stop-color:#2747ED"/>
								<stop  offset="1" style="stop-color:#000422"/>
							</linearGradient>
							<path style="fill:url(#SVGID_00000011752051354958356160000014649053357036799403_);" d="M767.917,588.04
								c-1.088,0-2.173-0.04-3.257-0.12c-26.896-1.976-52.782-27.649-79.138-78.487c-22.469-43.341-41.542-98.04-56.867-141.99
								c-17.253-49.48-30.904-88.568-40.458-87.133c-9.421,1.403-15.446,43.372-18.963,132.075
								c-3.865,97.515-9.134,111.088-13.779,111.503c-0.065,0.006-0.131,0.009-0.195,0.009c-7.002,0.003-14.754-33.48-28.875-97.163
								c-24.538-110.658-61.62-277.886-117.617-280.435c-34.787-1.591-72.946,61.871-113.424,188.594
								c-39.696,124.274-78.332,185.439-118.116,186.989c-0.508,0.02-1.021,0.029-1.531,0.029
								c-24.841,0.003-50.379-23.517-78.02-71.822C72.865,406.729,49.574,349.584,27.05,294.32
								C-10.984,201.003-46.889,112.847-81.724,114.79c-20.397,1.131-39.147,32.849-57.32,96.966l-0.962-0.273
								c18.304-64.579,37.35-96.534,58.227-97.692c35.534-1.95,71.583,86.493,109.755,180.152
								c22.512,55.233,45.79,112.347,70.569,155.649c28.005,48.941,53.711,72.273,78.644,71.289
								c18.579-0.724,37.345-15.268,55.777-43.232c20.249-30.722,40.916-78.855,61.425-143.062
								c21.331-66.779,42.188-116.483,61.992-147.73c17.963-28.341,35.608-42.324,52.43-41.557
								c56.762,2.583,93.943,170.261,118.547,281.217c11.462,51.689,21.372,96.38,27.88,96.38c0.043,0,0.084-0.002,0.126-0.005
								c7.635-0.685,11.001-63.419,12.868-110.547c3.637-91.714,9.563-131.497,19.815-133.025
								c10.396-1.576,23.462,35.924,41.55,87.793c15.314,43.921,34.375,98.581,56.811,141.859
								c26.183,50.504,51.803,76.002,78.323,77.95c30.859,2.283,63.255-28.623,96.325-91.809l0.887,0.463
								c-17.336,33.123-34.621,57.637-51.373,72.86C796.245,581.457,781.912,588.039,767.917,588.04z"/>
						</g>
					</g>
					<g>
						<g>
							
								<linearGradient id="SVGID_00000136410459181035305970000012478108186558151596_" gradientUnits="userSpaceOnUse" x1="-148.3774" y1="344.2539" x2="874" y2="344.2539">
								<stop  offset="0" style="stop-color:#FF25B6"/>
								<stop  offset="0.013" style="stop-color:#F720C0"/>
								<stop  offset="0.0526" style="stop-color:#E112DB"/>
								<stop  offset="0.093" style="stop-color:#D208EE"/>
								<stop  offset="0.1345" style="stop-color:#C902F9"/>
								<stop  offset="0.1787" style="stop-color:#C600FD"/>
								<stop  offset="0.475" style="stop-color:#432AF3"/>
								<stop  offset="0.6457" style="stop-color:#2747ED"/>
								<stop  offset="1" style="stop-color:#000422"/>
							</linearGradient>
							<path style="fill:url(#SVGID_00000136410459181035305970000012478108186558151596_);" d="M779.799,581.916
								c-1.063,0-2.121-0.036-3.18-0.108c-27.515-1.872-54.243-27.262-81.713-77.619c-23.419-42.931-43.472-97.118-59.585-140.658
								c-18.132-48.996-32.451-87.714-42.2-86.102c-9.509,1.555-15.165,42.751-17.803,129.649
								c-2.902,95.646-8.096,109.035-12.793,109.518c-0.078,0.008-0.156,0.012-0.234,0.012c-7.11,0.002-15.363-33.057-30.403-95.848
								c-26.22-109.457-65.842-274.87-123.122-277.031c-35.217-1.331-73.259,60.669-112.924,184.279
								c-38.814,120.952-77.201,180.686-117.353,182.615c-0.659,0.031-1.322,0.048-1.982,0.048
								c-25.292,0.002-51.538-23.191-80.166-70.804c-25.84-42.976-50.26-99.7-73.876-154.558
								c-39.848-92.563-77.452-180.003-113.045-177.674c-20.559,1.342-39.15,32.323-56.834,94.713l-0.962-0.272
								c17.814-62.848,36.698-94.066,57.731-95.439c36.292-2.354,74.036,85.379,114.028,178.276
								c23.603,54.827,48.01,111.521,73.815,154.438c29.168,48.511,55.765,71.515,81.243,70.272
								c18.765-0.901,37.578-15.224,55.915-42.568c20.126-30.015,40.494-76.899,60.535-139.353
								c20.897-65.122,41.496-113.628,61.225-144.171c17.905-27.719,35.634-41.444,52.688-40.803
								c58.039,2.189,97.768,168.047,124.057,277.798c12.214,50.988,22.776,95.081,29.412,95.081c0.051,0,0.101-0.002,0.151-0.008
								c7.734-0.794,10.493-62.334,11.895-108.554c2.728-89.855,8.303-128.915,18.642-130.605c0.235-0.038,0.475-0.058,0.714-0.058
								c10.463,0,24.003,36.587,42.585,86.8c16.102,43.51,36.142,97.659,59.525,140.526c27.293,50.033,53.757,75.253,80.902,77.1
								c31.214,2.111,63.66-27.924,96.431-89.311L874,491.97c-17.174,32.171-34.387,55.995-51.159,70.809
								C808.449,575.488,793.985,581.915,779.799,581.916z"/>
						</g>
					</g>
					<g>
						<g>
							
								<linearGradient id="SVGID_00000072273693419089455640000010640408698788226232_" gradientUnits="userSpaceOnUse" x1="-156.9907" y1="337.7404" x2="886.2344" y2="337.7404">
								<stop  offset="0" style="stop-color:#FF25B6"/>
								<stop  offset="0.013" style="stop-color:#F720C0"/>
								<stop  offset="0.0526" style="stop-color:#E112DB"/>
								<stop  offset="0.093" style="stop-color:#D208EE"/>
								<stop  offset="0.1345" style="stop-color:#C902F9"/>
								<stop  offset="0.1787" style="stop-color:#C600FD"/>
								<stop  offset="0.475" style="stop-color:#432AF3"/>
								<stop  offset="0.6457" style="stop-color:#2747ED"/>
								<stop  offset="1" style="stop-color:#000422"/>
							</linearGradient>
							<path style="fill:url(#SVGID_00000072273693419089455640000010640408698788226232_);" d="M791.853,576.021
								c-1.03,0-2.058-0.032-3.085-0.097c-28.148-1.765-55.739-26.879-84.348-76.779c-24.389-42.539-45.441-96.241-62.357-139.392
								c-19.025-48.533-34.032-86.844-43.968-85.102c-9.588,1.71-14.875,42.15-16.639,127.272
								c-1.944,93.808-7.06,107.02-11.807,107.571c-0.091,0.011-0.184,0.017-0.276,0.017c-7.22,0.003-15.977-32.644-31.944-94.566
								c-27.929-108.314-70.137-272-128.733-273.746c-35.735-1.08-73.561,59.51-112.426,180.039
								c-37.943,117.671-76.073,175.998-116.569,178.314c-0.823,0.047-1.651,0.071-2.477,0.071
								c-25.746,0.002-52.705-22.87-82.326-69.804c-26.892-42.607-52.467-98.94-77.2-153.419
								c-41.7-91.851-81.087-178.599-117.396-175.879c-20.704,1.556-39.13,31.813-56.331,92.5l-0.962-0.272
								c17.329-61.14,36.045-91.634,57.218-93.225c37.018-2.743,76.534,84.285,118.382,176.463
								c24.719,54.447,50.28,110.749,77.135,153.299c30.359,48.104,57.807,70.759,83.9,69.268
								c18.938-1.083,37.789-15.189,56.028-41.928c19.999-29.317,40.066-74.972,59.646-135.694
								c20.47-63.483,40.814-110.807,60.468-140.657c17.848-27.107,35.692-40.59,52.939-40.075
								c59.349,1.768,101.669,165.892,129.673,274.496c13.501,52.357,24.191,93.816,30.948,93.816c0.063,0,0.126-0.003,0.188-0.011
								c7.828-0.91,9.982-61.273,10.922-106.6c1.824-88.026,7.047-126.377,17.463-128.234c10.717-1.907,25.131,34.848,45.075,85.721
								c16.903,43.12,37.941,96.784,62.293,139.26c28.429,49.586,55.756,74.536,83.543,76.278
								c31.569,1.964,64.053-27.243,96.524-86.854l0.879,0.479c-17.014,31.232-34.154,54.375-50.945,68.786
								C820.83,569.744,806.233,576.019,791.853,576.021z"/>
						</g>
					</g>
					<g>
						<g>
							
								<linearGradient id="SVGID_00000158004790891978463080000000230593959080602032_" gradientUnits="userSpaceOnUse" x1="-165.8521" y1="331.3465" x2="898.6416" y2="331.3465">
								<stop  offset="0" style="stop-color:#FF25B6"/>
								<stop  offset="0.013" style="stop-color:#F720C0"/>
								<stop  offset="0.0526" style="stop-color:#E112DB"/>
								<stop  offset="0.093" style="stop-color:#D208EE"/>
								<stop  offset="0.1345" style="stop-color:#C902F9"/>
								<stop  offset="0.1787" style="stop-color:#C600FD"/>
								<stop  offset="0.475" style="stop-color:#432AF3"/>
								<stop  offset="0.6457" style="stop-color:#2747ED"/>
								<stop  offset="1" style="stop-color:#000422"/>
							</linearGradient>
							<path style="fill:url(#SVGID_00000158004790891978463080000000230593959080602032_);" d="M804.065,570.346
								c-0.988,0-1.973-0.028-2.959-0.085c-28.798-1.651-57.268-26.499-87.04-75.964c-25.379-42.165-47.45-95.407-65.185-138.188
								c-19.936-48.094-35.685-86.071-45.766-84.136c-9.66,1.869-14.577,41.569-15.476,124.94
								c-0.99,92.001-6.024,105.044-10.818,105.669c-0.107,0.014-0.214,0.02-0.322,0.02c-7.33,0.001-16.599-32.248-33.498-93.32
								c-29.67-107.226-74.507-269.266-134.448-270.567c-36.223-0.773-73.844,58.388-111.914,175.874
								c-37.082,114.429-74.946,171.371-115.755,174.08c-27.109,1.786-55.723-20.681-87.518-68.722
								c-27.969-42.26-54.728-98.23-80.605-152.358c-43.593-91.185-84.77-177.32-121.84-174.159
								c-20.831,1.772-39.087,31.316-55.812,90.319l-0.962-0.272c16.851-59.451,35.394-89.231,56.689-91.043
								c37.75-3.21,79.08,83.218,122.827,174.724C39.526,321.256,66.27,377.194,94.2,419.397
								c31.579,47.715,59.9,70.057,86.618,68.275c19.099-1.268,37.979-15.165,56.114-41.305
								c19.864-28.634,39.633-73.073,58.757-132.086c20.046-61.863,40.136-108.021,59.71-137.192
								c17.788-26.507,35.644-39.778,53.176-39.374c60.685,1.317,105.642,163.789,135.391,271.3
								c14.449,52.22,25.854,93.51,32.727,92.574c7.918-1.031,9.47-60.241,9.948-104.688c0.929-86.227,5.8-123.883,16.285-125.912
								c10.903-2.088,25.982,34.323,46.88,84.735c17.722,42.75,39.777,95.953,65.117,138.055
								c29.588,49.16,57.798,73.85,86.24,75.481c31.97,1.83,64.426-26.577,96.605-84.436l0.873,0.486
								C867.248,541.759,835.443,570.344,804.065,570.346z"/>
						</g>
					</g>
					<g>
						<g>
							
								<linearGradient id="SVGID_00000147941782878344982300000017187971358883884959_" gradientUnits="userSpaceOnUse" x1="-174.9653" y1="325.0807" x2="911.2275" y2="325.0807">
								<stop  offset="0" style="stop-color:#FF25B6"/>
								<stop  offset="0.013" style="stop-color:#F720C0"/>
								<stop  offset="0.0526" style="stop-color:#E112DB"/>
								<stop  offset="0.093" style="stop-color:#D208EE"/>
								<stop  offset="0.1345" style="stop-color:#C902F9"/>
								<stop  offset="0.1787" style="stop-color:#C600FD"/>
								<stop  offset="0.475" style="stop-color:#432AF3"/>
								<stop  offset="0.6457" style="stop-color:#2747ED"/>
								<stop  offset="1" style="stop-color:#000422"/>
							</linearGradient>
							<path style="fill:url(#SVGID_00000147941782878344982300000017187971358883884959_);" d="M816.475,564.898
								c-0.945,0-1.885-0.024-2.83-0.073c-29.461-1.535-58.832-26.125-89.792-75.176c-26.39-41.811-49.5-94.617-68.069-137.047
								c-20.868-47.683-37.371-85.355-47.592-83.203c-9.723,2.032-14.268,41.007-14.307,122.655
								c-0.04,90.229-4.99,103.108-9.827,103.809c-0.123,0.018-0.247,0.026-0.371,0.026c-7.441,0.001-17.226-31.86-35.064-92.106
								c-31.443-106.196-78.961-266.681-140.283-267.509c-36.641-0.484-74.108,57.299-111.397,171.776
								c-36.23,111.228-73.817,166.807-114.911,169.914c-27.706,2.111-57.245-20.056-90.294-67.721
								c-29.072-41.93-57.043-97.565-84.094-151.369C-37.886,168.312-80.874,82.781-118.73,86.371
								c-20.941,1.992-39.021,30.833-55.273,88.173l-0.962-0.272c16.377-57.783,34.741-86.861,56.14-88.896
								c38.542-3.66,81.674,82.173,127.363,173.049c27.035,53.773,54.99,109.377,84.022,151.249
								c32.829,47.348,62.075,69.358,89.396,67.293c19.246-1.455,38.145-15.149,56.171-40.702
								c19.724-27.959,39.192-71.201,57.864-128.525c19.629-60.26,39.466-105.266,58.961-133.769
								c17.726-25.917,35.692-38.905,53.401-38.697c62.059,0.839,109.702,161.749,141.229,268.225
								c15.097,50.989,27.06,91.393,34.076,91.393c0.087,0,0.172-0.006,0.257-0.018c8-1.158,8.951-59.235,8.971-102.819
								c0.039-84.455,4.556-121.43,15.102-123.634c11.034-2.321,26.84,33.803,48.713,83.78
								c18.556,42.399,41.649,95.167,67.999,136.915c30.773,48.755,59.885,73.193,88.998,74.71
								c32.304,1.681,64.774-25.93,96.662-82.058l0.869,0.494C880.065,537.114,848.198,564.896,816.475,564.898z"/>
						</g>
					</g>
					<g>
						<g>
							
								<linearGradient id="SVGID_00000053530495863858896250000013785754460505703842_" gradientUnits="userSpaceOnUse" x1="-184.3364" y1="318.9328" x2="924.0088" y2="318.9328">
								<stop  offset="0" style="stop-color:#FF25B6"/>
								<stop  offset="0.013" style="stop-color:#F720C0"/>
								<stop  offset="0.0526" style="stop-color:#E112DB"/>
								<stop  offset="0.093" style="stop-color:#D208EE"/>
								<stop  offset="0.1345" style="stop-color:#C902F9"/>
								<stop  offset="0.1787" style="stop-color:#C600FD"/>
								<stop  offset="0.475" style="stop-color:#432AF3"/>
								<stop  offset="0.6457" style="stop-color:#2747ED"/>
								<stop  offset="1" style="stop-color:#000422"/>
							</linearGradient>
							<path style="fill:url(#SVGID_00000053530495863858896250000013785754460505703842_);" d="M829.078,559.672
								c-0.896,0-1.788-0.02-2.684-0.063c-30.142-1.415-60.434-25.757-92.607-74.416c-27.424-41.475-51.596-93.87-71.018-135.971
								c-21.817-47.288-39.078-84.641-49.449-82.303c-9.777,2.199-13.951,40.463-13.137,120.421
								c0.904,88.484-3.96,101.209-8.838,101.987c-0.133,0.022-0.268,0.032-0.402,0.032c-7.933,0.003-19.423-36.359-36.669-90.933
								c-33.25-105.218-83.498-264.224-146.228-264.55c-0.061-0.001-0.127-0.001-0.188-0.001c-36.987,0-74.217,56.43-110.67,167.747
								c-35.39,108.064-72.691,162.3-114.038,165.809c-1.402,0.119-2.815,0.179-4.229,0.18
								c-27.138,0.002-56.271-21.945-88.906-66.912c-30.203-41.618-59.418-96.948-87.671-150.456
								C-45.168,160.263-90.033,75.263-128.66,79.332c-21.031,2.212-38.928,30.363-54.715,86.06l-0.962-0.273
								c15.911-56.135,34.089-84.521,55.572-86.782c39.284-4.131,84.317,81.149,131.993,171.439
								c28.237,53.478,57.435,108.775,87.597,150.335c34.111,47.003,64.283,68.705,92.241,66.324
								c19.378-1.645,38.286-15.141,56.199-40.114c19.578-27.294,38.747-69.353,56.973-125.009
								c19.214-58.676,38.799-102.545,58.208-130.391c17.597-25.245,35.568-38.045,53.413-38.045c0.066,0,0.129,0,0.194,0.001
								c63.457,0.33,113.838,159.754,147.176,265.248c16.128,51.036,28.826,91.354,35.96,90.215
								c8.078-1.288,8.432-58.254,7.995-100.99c-0.831-81.611,3.461-119.055,13.917-121.406c11.2-2.498,27.711,33.294,50.576,82.859
								c19.408,42.069,43.563,94.427,70.944,135.838c31.985,48.374,62.021,72.569,91.82,73.969
								c32.54,1.519,65.101-25.289,96.702-79.713l0.865,0.502C893.068,532.684,861.143,559.671,829.078,559.672z"/>
						</g>
					</g>
					<g>
						<g>
							
								<linearGradient id="SVGID_00000111182479008564736910000005224079007514748313_" gradientUnits="userSpaceOnUse" x1="-193.9653" y1="312.9064" x2="936.9727" y2="312.9064">
								<stop  offset="0" style="stop-color:#FF25B6"/>
								<stop  offset="0.013" style="stop-color:#F720C0"/>
								<stop  offset="0.0526" style="stop-color:#E112DB"/>
								<stop  offset="0.093" style="stop-color:#D208EE"/>
								<stop  offset="0.1345" style="stop-color:#C902F9"/>
								<stop  offset="0.1787" style="stop-color:#C600FD"/>
								<stop  offset="0.475" style="stop-color:#432AF3"/>
								<stop  offset="0.6457" style="stop-color:#2747ED"/>
								<stop  offset="1" style="stop-color:#000422"/>
							</linearGradient>
							<path style="fill:url(#SVGID_00000111182479008564736910000005224079007514748313_);" d="M841.87,554.663
								c-0.84,0-1.68-0.018-2.519-0.053c-30.837-1.293-62.069-25.396-95.485-73.685c-28.48-41.157-53.734-93.165-74.026-134.954
								c-22.784-46.92-40.805-83.986-51.332-81.43c-9.821,2.368-13.621,39.938-11.96,118.23c1.843,86.77-2.933,99.346-7.847,100.204
								c-8.069,1.412-20.258-34.864-38.729-89.758C524.899,288.994,471.908,131.52,407.798,131.52c-0.043,0-0.084,0-0.127,0
								c-17.761,0.058-35.588,12.504-52.984,36.996c-19.264,27.119-38.551,69.779-57.327,126.793
								c-34.557,104.942-71.56,157.858-113.123,161.771c-28.975,2.71-60.386-18.782-96.036-65.756
								C56.839,350,26.348,294.949-3.139,241.711C-52.68,152.266-99.475,67.785-138.869,72.324
								c-21.101,2.433-38.809,29.902-54.135,83.977l-0.962-0.272c15.449-54.508,33.434-82.212,54.982-84.698
								c40.066-4.617,87.012,80.149,136.72,169.897c29.47,53.208,59.942,108.226,91.261,149.492
								c35.424,46.675,66.544,68.057,95.146,65.364c19.494-1.835,38.399-15.139,56.192-39.542
								c19.423-26.642,38.29-67.535,56.075-121.545c18.807-57.11,38.14-99.859,57.461-127.06
								c17.594-24.769,35.694-37.358,53.797-37.416c0.039,0,0.09,0,0.129,0c64.836,0,117.957,157.877,153.122,262.379
								c16.985,50.48,30.438,90.37,37.609,89.092c8.149-1.423,7.908-57.295,7.019-99.197
								c-1.695-79.923,2.229-116.692,12.726-119.224c11.331-2.726,28.589,32.794,52.466,81.965
								c20.277,41.758,45.513,93.728,73.949,134.822c33.225,48.013,64.203,71.975,94.704,73.254
								c32.896,1.374,65.403-24.665,96.722-77.405l0.859,0.51C906.25,528.456,874.268,554.663,841.87,554.663z"/>
						</g>
					</g>
					<g>
						<g>
							
								<linearGradient id="SVGID_00000123434565567044818440000002318439870691487140_" gradientUnits="userSpaceOnUse" x1="-203.8599" y1="306.9922" x2="950.1406" y2="306.9922">
								<stop  offset="0" style="stop-color:#FF25B6"/>
								<stop  offset="0.013" style="stop-color:#F720C0"/>
								<stop  offset="0.0526" style="stop-color:#E112DB"/>
								<stop  offset="0.093" style="stop-color:#D208EE"/>
								<stop  offset="0.1345" style="stop-color:#C902F9"/>
								<stop  offset="0.1787" style="stop-color:#C600FD"/>
								<stop  offset="0.475" style="stop-color:#432AF3"/>
								<stop  offset="0.6457" style="stop-color:#2747ED"/>
								<stop  offset="1" style="stop-color:#000422"/>
							</linearGradient>
							<path style="fill:url(#SVGID_00000123434565567044818440000002318439870691487140_);" d="M854.87,549.872
								c-0.781,0-1.557-0.015-2.339-0.044c-31.545-1.167-63.741-25.039-98.426-72.98c-29.562-40.858-55.923-92.502-77.104-133.999
								c-23.77-46.569-42.553-83.349-53.248-80.589c-9.854,2.54-13.279,39.426-10.778,116.082
								c2.775,85.088-1.907,97.521-6.856,98.463c-0.169,0.032-0.342,0.049-0.516,0.049c-8.179,0.002-20.877-35.514-39.896-88.703
								c-36.888-103.164-92.592-258.946-158.014-258.946c-0.164,0-0.32,0.001-0.485,0.003c-17.95,0.212-35.837,12.458-53.164,36.398
								c-19.167,26.484-38.2,68.034-56.569,123.497c-33.734,101.859-70.427,153.472-112.173,157.786
								c-29.627,3.056-62.003-18.132-99.003-64.79C53.75,341.052,21.95,286.253-8.803,233.258
								C-60.421,144.306-109.158,60.283-149.362,65.327c-21.151,2.654-38.663,29.452-53.536,81.928l-0.962-0.272
								c14.995-52.904,32.78-79.938,54.374-82.647c40.838-5.124,89.758,79.173,141.548,168.422
								c30.735,52.964,62.516,107.731,95.02,148.72c36.77,46.369,68.854,67.434,98.116,64.417
								c19.593-2.024,38.485-15.14,56.151-38.981c19.262-25.996,37.826-65.738,55.176-118.124
								c18.401-55.56,37.481-97.202,56.708-123.768c17.523-24.211,35.678-36.596,53.962-36.812c0.162-0.001,0.333-0.002,0.495-0.002
								c66.136,0,121.973,156.171,158.958,259.608c17.861,49.955,31.995,89.398,39.283,88.009
								c8.215-1.563,7.383-56.363,6.042-97.447c-2.553-78.261,1.003-114.37,11.528-117.084
								c11.491-2.959,29.479,32.302,54.389,81.104c21.166,41.466,47.508,93.071,77.023,133.867
								c34.493,47.675,66.436,71.411,97.653,72.566c33.167,1.235,65.682-24.056,96.717-75.14l0.855,0.52
								C919.631,524.428,887.587,549.868,854.87,549.872z"/>
						</g>
					</g>
					<g>
						<g>
							
								<linearGradient id="SVGID_00000149372641992162877950000006079961439380942734_" gradientUnits="userSpaceOnUse" x1="-214.0239" y1="301.1931" x2="963.5088" y2="301.1931">
								<stop  offset="0" style="stop-color:#FF25B6"/>
								<stop  offset="0.013" style="stop-color:#F720C0"/>
								<stop  offset="0.0526" style="stop-color:#E112DB"/>
								<stop  offset="0.093" style="stop-color:#D208EE"/>
								<stop  offset="0.1345" style="stop-color:#C902F9"/>
								<stop  offset="0.1787" style="stop-color:#C600FD"/>
								<stop  offset="0.475" style="stop-color:#432AF3"/>
								<stop  offset="0.6457" style="stop-color:#2747ED"/>
								<stop  offset="1" style="stop-color:#000422"/>
							</linearGradient>
							<path style="fill:url(#SVGID_00000149372641992162877950000006079961439380942734_);" d="M868.075,545.297
								c-0.714,0-1.425-0.012-2.141-0.035c-32.271-1.04-65.45-24.69-101.436-72.304c-30.666-40.576-58.158-91.879-80.248-133.102
								c-24.778-46.237-44.35-82.756-55.197-79.778c-9.878,2.715-12.926,38.934-9.593,113.983
								c2.947,66.362,1.196,95.298-5.856,96.752c-8.237,1.678-21.726-33.816-42.109-87.576
								c-38.735-102.158-97.185-256.31-163.949-256.31c-0.295,0-0.589,0.003-0.885,0.009c-18.128,0.371-36.068,12.423-53.321,35.822
								c-19.066,25.859-37.844,66.315-55.811,120.246c-32.924,98.819-69.294,149.148-111.187,153.864
								c-30.272,3.407-63.651-17.473-102.036-63.838c-33.767-40.787-66.911-95.361-98.963-148.14
								c-53.748-88.502-104.518-172.102-145.491-166.54c-21.18,2.872-38.488,29.01-52.914,79.907l-0.962-0.272
								c14.546-51.321,32.126-77.694,53.742-80.625c41.616-5.65,92.556,78.222,146.479,167.012
								c32.034,52.748,65.159,107.291,98.879,148.022c38.151,46.083,71.229,66.839,101.154,63.481
								c19.676-2.215,38.542-15.146,56.075-38.433c19.094-25.36,37.354-63.97,54.274-114.754
								c18-54.029,36.826-94.579,55.955-120.523c17.447-23.662,35.65-35.851,54.106-36.228c0.298-0.006,0.602-0.009,0.9-0.009
								c67.461,0,126.054,154.537,164.889,256.956c18.744,49.435,33.557,88.509,40.973,86.951c8.27-1.706,6.848-55.45,5.059-95.728
								c-3.403-76.63-0.219-112.095,10.327-114.992c11.623-3.177,30.378,31.817,56.343,80.27
								c22.074,41.192,49.546,92.457,80.165,132.972c35.791,47.355,68.721,70.877,100.67,71.907
								c33.419,1.063,65.935-23.453,96.692-72.907l0.85,0.527C933.204,520.608,901.105,545.294,868.075,545.297z"/>
						</g>
					</g>
					<g>
						<g>
							
								<linearGradient id="SVGID_00000141434841847997492520000010718595771741545113_" gradientUnits="userSpaceOnUse" x1="-224.4517" y1="295.5086" x2="977.0918" y2="295.5086">
								<stop  offset="0" style="stop-color:#FF25B6"/>
								<stop  offset="0.013" style="stop-color:#F720C0"/>
								<stop  offset="0.0526" style="stop-color:#E112DB"/>
								<stop  offset="0.093" style="stop-color:#D208EE"/>
								<stop  offset="0.1345" style="stop-color:#C902F9"/>
								<stop  offset="0.1787" style="stop-color:#C600FD"/>
								<stop  offset="0.475" style="stop-color:#432AF3"/>
								<stop  offset="0.6457" style="stop-color:#2747ED"/>
								<stop  offset="1" style="stop-color:#000422"/>
							</linearGradient>
							<path style="fill:url(#SVGID_00000141434841847997492520000010718595771741545113_);" d="M881.505,540.94
								c-0.644,0-1.284-0.009-1.928-0.026c-33.013-0.913-67.2-24.353-104.517-71.66c-31.799-40.313-60.448-91.298-83.468-132.266
								c-25.807-45.925-46.175-82.21-57.178-78.994c-9.889,2.889-12.558,38.452-8.398,111.92
								c3.685,65.069,2.232,93.506-4.854,95.084c-8.319,1.859-22.467-33.304-43.832-86.535
								c-40.612-101.188-101.858-253.777-169.982-253.777c-0.443,0-0.882,0.006-1.326,0.019
								c-18.294,0.533-36.278,12.398-53.452,35.265c-18.959,25.245-37.481,64.621-55.051,117.034
								c-32.122,95.821-68.154,144.886-110.156,149.998c-30.952,3.767-65.332-16.808-105.134-62.895
								C47.212,323.56,12.688,269.185-20.7,216.598C-76.629,128.508-129.464,45.286-171.223,51.39
								c-21.185,3.088-38.282,28.574-52.267,77.913l-0.962-0.272c14.104-49.759,31.468-75.479,53.084-78.63
								c42.399-6.177,95.404,77.289,151.513,165.662c33.368,52.556,67.872,106.901,102.84,147.39
								c39.568,45.816,73.671,66.282,104.256,62.557c19.742-2.403,38.57-15.152,55.962-37.893
								c18.917-24.734,36.872-62.226,53.367-111.432c17.603-52.515,36.175-91.986,55.199-117.316
								c17.366-23.123,35.609-35.123,54.222-35.665c69.398-2.016,131.285,152.28,172.266,254.386
								c19.644,48.946,35.153,87.601,42.688,85.931c8.318-1.853,6.309-54.564,4.073-94.051
								c-4.248-75.022-1.436-109.853,9.116-112.936c11.752-3.425,31.286,31.337,58.33,79.464
								c23.003,40.938,51.631,91.885,83.381,132.137c37.121,47.06,71.061,70.376,103.759,71.279
								c0.633,0.018,1.267,0.026,1.898,0.026c32.973,0,64.838-23.786,94.746-70.735l0.844,0.537
								C946.988,516.996,914.838,540.938,881.505,540.94z"/>
						</g>
					</g>
					<g>
						<g>
							
								<linearGradient id="SVGID_00000015352678499917818370000016723122890111853459_" gradientUnits="userSpaceOnUse" x1="-235.1626" y1="289.93" x2="990.8779" y2="289.93">
								<stop  offset="0" style="stop-color:#FF25B6"/>
								<stop  offset="0.013" style="stop-color:#F720C0"/>
								<stop  offset="0.0526" style="stop-color:#E112DB"/>
								<stop  offset="0.093" style="stop-color:#D208EE"/>
								<stop  offset="0.1345" style="stop-color:#C902F9"/>
								<stop  offset="0.1787" style="stop-color:#C600FD"/>
								<stop  offset="0.475" style="stop-color:#432AF3"/>
								<stop  offset="0.6457" style="stop-color:#2747ED"/>
								<stop  offset="1" style="stop-color:#000422"/>
							</linearGradient>
							<path style="fill:url(#SVGID_00000015352678499917818370000016723122890111853459_);" d="M895.151,536.793
								c-0.567,0-1.132-0.007-1.7-0.021c-33.766-0.784-68.98-24.023-107.655-71.043c-32.955-40.065-62.786-90.754-86.756-131.482
								c-26.858-45.638-48.052-81.685-59.192-78.244c-9.891,3.065-12.179,37.988-7.202,109.906
								c4.416,63.798,3.266,91.745-3.848,93.449c-0.233,0.056-0.473,0.083-0.715,0.083c-8.554,0.005-23.119-34.343-44.861-85.607
								c-42.526-100.271-106.607-251.36-176.125-251.36c-0.603,0-1.207,0.012-1.811,0.035
								c-18.447,0.699-36.466,12.382-53.557,34.727c-18.846,24.639-37.111,62.948-54.288,113.862
								c-31.331,92.867-67.013,140.687-109.085,146.189c-31.617,4.132-67.041-16.134-108.298-61.965
								C43.761,315.002,7.819,260.798-26.94,208.378c-58.166-87.72-113.112-170.573-155.665-163.939
								c-21.169,3.3-38.046,28.143-51.597,75.949l-0.962-0.272c13.668-48.221,30.81-73.298,52.405-76.665
								c43.182-6.735,98.304,76.38,156.652,164.375C8.633,260.215,44.554,314.388,80.8,354.653
								c41.021,45.568,76.157,65.727,107.426,61.643c19.788-2.589,38.565-15.158,55.81-37.359
								c18.732-24.117,36.381-60.508,52.458-108.159c17.211-51.018,35.528-89.423,54.441-114.149
								c17.281-22.592,35.554-34.408,54.313-35.119c0.61-0.023,1.233-0.035,1.842-0.035c70.193,0,134.42,151.448,177.053,251.969
								c20.56,48.479,36.789,86.755,44.423,84.942c8.358-2.002,5.763-53.697,3.083-92.408c-5.082-73.448-2.645-107.66,7.904-110.93
								c11.883-3.674,32.207,30.871,60.351,78.692c23.951,40.698,53.76,91.349,86.665,131.354
								c38.479,46.782,73.449,69.901,106.907,70.679c0.558,0.013,1.117,0.02,1.675,0.02c33.266,0,65.181-23.059,94.891-68.566
								l0.838,0.547C960.973,513.58,928.772,536.791,895.151,536.793z"/>
						</g>
					</g>
					<g>
						<g>
							
								<linearGradient id="SVGID_00000039132117809322663370000015366570957729365422_" gradientUnits="userSpaceOnUse" x1="-246.147" y1="284.4583" x2="1004.8916" y2="284.4583">
								<stop  offset="0" style="stop-color:#FF25B6"/>
								<stop  offset="0.013" style="stop-color:#F720C0"/>
								<stop  offset="0.0526" style="stop-color:#E112DB"/>
								<stop  offset="0.093" style="stop-color:#D208EE"/>
								<stop  offset="0.1345" style="stop-color:#C902F9"/>
								<stop  offset="0.1787" style="stop-color:#C600FD"/>
								<stop  offset="0.475" style="stop-color:#432AF3"/>
								<stop  offset="0.6457" style="stop-color:#2747ED"/>
								<stop  offset="1" style="stop-color:#000422"/>
							</linearGradient>
							<path style="fill:url(#SVGID_00000039132117809322663370000015366570957729365422_);" d="M909.036,532.859
								c-0.487,0-0.974-0.005-1.461-0.015c-34.536-0.657-70.803-23.705-110.87-70.461c-34.139-39.838-65.179-90.251-90.12-130.759
								c-27.932-45.366-49.989-81.219-61.236-77.518c-9.879,3.24-11.785,37.535-5.997,107.926c5.143,62.551,4.294,90.02-2.84,91.853
								c-8.529,2.173-23.974-32.316-47.348-84.551C544.2,268.852,476.265,117.028,404.453,120.353
								c-18.586,0.868-36.629,12.377-53.63,34.207c-18.726,24.044-36.732,61.3-53.519,110.732
								c-15.699,46.228-33.095,81.631-51.704,105.228c-17.253,21.879-36.184,34.396-56.264,37.203
								c-2.971,0.415-5.98,0.623-9.023,0.623c-30.042,0.002-63.688-20.271-102.506-61.672
								C40.198,306.563,2.799,252.505-33.369,200.227c-60.458-87.389-117.563-169.93-160.915-162.733
								c-21.129,3.508-37.779,27.717-50.901,74.011l-0.962-0.272c13.238-46.705,30.149-71.147,51.699-74.725
								c43.982-7.3,101.258,75.494,161.901,163.151C3.601,251.906,40.978,305.933,78.537,345.99
								c42.513,45.34,78.711,65.207,110.661,60.742c19.816-2.771,38.529-15.163,55.617-36.832
								c18.538-23.507,35.879-58.811,51.541-104.931c16.823-49.538,34.883-86.893,53.677-111.025
								c17.189-22.07,35.482-33.708,54.373-34.591c0.792-0.037,1.591-0.055,2.381-0.055c71.593,0,138.708,149.996,183.289,249.628
								c21.493,48.032,38.443,85.972,46.188,83.99c8.39-2.155,5.212-52.854,2.092-90.802c-5.912-71.899-3.852-105.503,6.682-108.958
								c11.991-3.92,33.136,30.413,62.399,77.943c24.923,40.479,55.941,90.855,90.027,130.633
								c39.872,46.526,75.896,69.461,110.131,70.111c34.047,0.66,66.528-21.697,96.467-66.418l0.83,0.557
								C975.18,510.367,942.935,532.858,909.036,532.859z"/>
						</g>
					</g>
					<g>
						<g>
							
								<linearGradient id="SVGID_00000162354684029804129130000016756279951569562002_" gradientUnits="userSpaceOnUse" x1="-257.4165" y1="279.0898" x2="1019.1289" y2="279.0898">
								<stop  offset="0" style="stop-color:#FF25B6"/>
								<stop  offset="0.013" style="stop-color:#F720C0"/>
								<stop  offset="0.0526" style="stop-color:#E112DB"/>
								<stop  offset="0.093" style="stop-color:#D208EE"/>
								<stop  offset="0.1345" style="stop-color:#C902F9"/>
								<stop  offset="0.1787" style="stop-color:#C600FD"/>
								<stop  offset="0.475" style="stop-color:#432AF3"/>
								<stop  offset="0.6457" style="stop-color:#2747ED"/>
								<stop  offset="1" style="stop-color:#000422"/>
							</linearGradient>
							<path style="fill:url(#SVGID_00000162354684029804129130000016756279951569562002_);" d="M923.161,529.132
								c-0.405,0-0.806-0.003-1.211-0.01c-35.321-0.531-72.661-23.398-114.154-69.909c-35.35-39.625-67.627-89.784-93.563-130.087
								c-29.034-45.121-51.97-80.777-63.321-76.824c-9.857,3.416-11.378,37.094-4.787,105.988
								c5.867,61.325,5.322,88.328-1.823,90.29c-0.281,0.077-0.571,0.115-0.867,0.115c-8.81,0.002-24.665-33.637-48.272-83.717
								c-47.083-99.88-118.272-250.79-191.643-246.737c-18.709,1.04-36.767,12.378-53.671,33.701
								c-18.598,23.458-36.343,59.674-52.745,107.643c-15.293,44.722-32.38,79.059-50.789,102.055
								c-17.087,21.346-35.935,33.684-56.018,36.671c-32.982,4.904-70.546-14.768-114.828-60.146
								c-38.956-39.92-77.852-93.857-115.467-146.019c-62.809-87.097-122.124-169.368-166.276-161.59
								c-21.067,3.709-37.481,27.293-50.181,72.1l-0.962-0.272c12.814-45.213,29.487-69.03,50.97-72.813
								c44.767-7.884,104.264,74.632,167.261,161.99C-1.592,243.693,37.282,297.6,76.186,337.467
								c44.041,45.132,81.319,64.708,113.965,59.855c19.825-2.948,38.459-15.164,55.384-36.307
								c18.336-22.906,35.368-57.141,50.623-101.754c16.439-48.077,34.239-84.393,52.907-107.94
								c17.09-21.557,35.393-33.022,54.399-34.079c74.077-4.119,145.406,147.188,192.603,247.31
								c22.44,47.604,40.162,85.211,47.97,83.063c6.402-1.757,6.749-30.11,1.093-89.229c-6.732-70.38-5.05-103.389,5.455-107.029
								c12.107-4.186,34.073,29.96,64.49,77.228c25.917,40.274,58.17,90.396,93.468,129.963
								c41.297,46.291,78.397,69.049,113.423,69.576c0.398,0.006,0.798,0.009,1.194,0.009c33.817,0,65.819-21.635,95.146-64.329
								l0.824,0.566C989.607,507.348,957.323,529.13,923.161,529.132z"/>
						</g>
					</g>
					<g>
						<g>
							
								<linearGradient id="SVGID_00000111160252560421367030000017235972057781305497_" gradientUnits="userSpaceOnUse" x1="-268.981" y1="273.8295" x2="1033.6016" y2="273.8295">
								<stop  offset="0" style="stop-color:#FF25B6"/>
								<stop  offset="0.013" style="stop-color:#F720C0"/>
								<stop  offset="0.0526" style="stop-color:#E112DB"/>
								<stop  offset="0.093" style="stop-color:#D208EE"/>
								<stop  offset="0.1345" style="stop-color:#C902F9"/>
								<stop  offset="0.1787" style="stop-color:#C600FD"/>
								<stop  offset="0.475" style="stop-color:#432AF3"/>
								<stop  offset="0.6457" style="stop-color:#2747ED"/>
								<stop  offset="1" style="stop-color:#000422"/>
							</linearGradient>
							<path style="fill:url(#SVGID_00000111160252560421367030000017235972057781305497_);" d="M937.537,525.624
								c-0.319,0-0.634-0.002-0.955-0.006c-36.119-0.408-74.556-23.108-117.507-69.395c-36.588-39.431-70.131-89.356-97.082-129.473
								c-30.158-44.889-53.982-80.343-65.438-76.158c-9.822,3.589-10.957,36.665-3.571,104.093
								c6.585,60.123,6.344,86.669-0.808,88.762c-8.683,2.552-25.508-31.365-50.962-82.694
								c-49.255-99.325-123.654-249.44-198.733-244.591c-18.816,1.213-36.875,12.386-53.677,33.21
								c-18.461,22.88-35.944,58.07-51.964,104.594c-14.892,43.243-31.67,76.529-49.87,98.933
								c-16.915,20.821-35.665,32.982-55.731,36.143c-33.682,5.311-72.341-14.077-118.193-59.257
								C32.708,290.039-7.727,236.198-46.831,184.129c-65.22-86.843-126.822-168.864-171.751-160.508
								c-20.982,3.904-37.152,26.871-49.437,70.213l-0.962-0.273c12.398-43.744,28.824-66.943,50.216-70.924
								c45.537-8.471,107.323,73.794,172.733,160.891c39.082,52.04,79.495,105.851,119.778,145.544
								c45.61,44.941,83.994,64.23,117.336,58.981c19.815-3.122,38.357-15.162,55.111-35.785
								c18.126-22.313,34.847-55.496,49.701-98.629c16.058-46.633,33.597-81.925,52.131-104.896
								c16.984-21.051,35.284-32.349,54.391-33.58c75.664-4.888,150.32,145.58,199.693,245.145
								c22.717,45.81,40.803,82.281,49.06,82.281c0.252,0,0.492-0.034,0.726-0.102c6.411-1.877,6.441-29.742,0.094-87.693
								c-7.546-68.891-6.243-101.317,4.223-105.142c12.202-4.458,35.022,29.52,66.611,76.54
								c26.932,40.087,60.45,89.978,96.985,129.351c42.754,46.075,80.955,68.669,116.785,69.075c0.313,0.003,0.63,0.005,0.942,0.005
								c34.071,0,66.109-20.941,95.249-62.262l0.816,0.576C1004.268,504.536,971.948,525.622,937.537,525.624z"/>
						</g>
					</g>
					<g>
						<g>
							
								<linearGradient id="SVGID_00000144318720412244257750000014125726279080535458_" gradientUnits="userSpaceOnUse" x1="-280.8423" y1="268.6714" x2="1048.3037" y2="268.6714">
								<stop  offset="0" style="stop-color:#FF25B6"/>
								<stop  offset="0.013" style="stop-color:#F720C0"/>
								<stop  offset="0.0526" style="stop-color:#E112DB"/>
								<stop  offset="0.093" style="stop-color:#D208EE"/>
								<stop  offset="0.1345" style="stop-color:#C902F9"/>
								<stop  offset="0.1787" style="stop-color:#C600FD"/>
								<stop  offset="0.475" style="stop-color:#432AF3"/>
								<stop  offset="0.6457" style="stop-color:#2747ED"/>
								<stop  offset="1" style="stop-color:#000422"/>
							</linearGradient>
							<path style="fill:url(#SVGID_00000144318720412244257750000014125726279080535458_);" d="M952.161,522.321
								c-0.231,0-0.46,0-0.692-0.002c-36.932-0.29-76.488-22.831-120.93-68.913c-37.854-39.253-72.69-88.965-100.682-128.908
								c-31.307-44.677-56.05-79.968-67.588-75.519c-9.776,3.761-10.522,36.246-2.35,102.235
								c7.204,58.156,7.273,85.069,0.221,87.265c-0.332,0.103-0.677,0.154-1.033,0.154c-9.068,0.003-26.253-32.984-51.771-81.963
								c-51.487-98.827-129.321-248.167-206.001-242.547c-18.908,1.387-36.958,12.399-53.648,32.732
								c-18.316,22.312-35.535,56.491-51.177,101.588c-14.496,41.788-30.963,74.039-48.945,95.856
								c-16.732,20.302-35.372,32.284-55.401,35.613c-3.947,0.656-7.972,0.984-12.064,0.985
								c-31.556,0.003-67.546-19.534-109.559-59.366c-41.752-39.586-83.769-93.354-124.403-145.352
								C-121.557,89.553-185.495,7.738-231.208,16.69c-20.874,4.092-36.794,26.451-48.672,68.354l-0.962-0.272
								c11.99-42.301,28.162-64.892,49.441-69.063c46.315-9.066,110.438,72.979,178.327,159.855
								c40.611,51.969,82.605,105.708,124.303,145.242c47.219,44.768,86.728,63.78,120.771,58.12
								c19.784-3.289,38.22-15.153,54.794-35.263c17.906-21.726,34.315-53.873,48.772-95.548
								c15.681-45.209,32.958-79.491,51.349-101.895c16.872-20.552,35.157-31.687,54.348-33.095
								c77.377-5.669,155.353,144.025,206.962,243.083c24.39,46.814,43.654,83.816,51.619,81.315
								c6.413-1.996,6.122-29.383-0.915-86.186c-8.352-67.43-7.432-99.286,2.982-103.292c12.278-4.735,35.975,29.084,68.767,75.878
								c27.971,39.915,62.781,89.592,100.582,128.788c44.245,45.878,83.568,68.32,120.218,68.607
								c34.544,0.311,66.871-19.993,96.017-60.227l0.811,0.586C1019.152,501.921,986.807,522.32,952.161,522.321z"/>
						</g>
					</g>
					<g>
						<g>
							
								<linearGradient id="SVGID_00000011751071663103913530000003689927180574246311_" gradientUnits="userSpaceOnUse" x1="-292.9946" y1="263.6086" x2="1063.2549" y2="263.6086">
								<stop  offset="0" style="stop-color:#FF25B6"/>
								<stop  offset="0.013" style="stop-color:#F720C0"/>
								<stop  offset="0.0526" style="stop-color:#E112DB"/>
								<stop  offset="0.093" style="stop-color:#D208EE"/>
								<stop  offset="0.1345" style="stop-color:#C902F9"/>
								<stop  offset="0.1787" style="stop-color:#C600FD"/>
								<stop  offset="0.475" style="stop-color:#432AF3"/>
								<stop  offset="0.6457" style="stop-color:#2747ED"/>
								<stop  offset="1" style="stop-color:#000422"/>
							</linearGradient>
							<path style="fill:url(#SVGID_00000011751071663103913530000003689927180574246311_);" d="M967.058,519.227
								c-0.146,0-0.285,0-0.431-0.001c-37.758-0.175-78.457-22.571-124.424-68.468c-39.151-39.091-75.31-88.607-104.364-128.395
								c-32.483-44.482-58.143-79.603-69.774-74.906c-9.717,3.929-10.072,35.838-1.118,100.418
								c7.905,57.011,8.291,83.472,1.251,85.797c-8.817,2.909-27.063-30.448-54.674-80.955
								c-53.778-98.374-135.058-247.042-213.438-240.594c-18.981,1.56-37.009,12.415-53.582,32.263
								c-18.163,21.751-35.115,54.932-50.384,98.621c-14.107,40.359-30.262,71.593-48.017,92.832
								c-16.542,19.788-35.057,31.591-55.03,35.081c-4.297,0.751-8.688,1.128-13.165,1.128
								c-32.071,0.003-68.858-19.306-111.954-58.65C24.75,273.955-18.893,220.235-61.099,168.284
								C-131.329,81.835-197.67,0.179-244.151,9.753c-20.743,4.27-36.405,26.029-47.881,66.519l-0.962-0.273
								c11.588-40.883,27.499-62.873,48.642-67.226c47.072-9.697,113.603,72.189,184.031,158.879
								c42.183,51.923,85.801,105.614,128.949,145.006c48.867,44.615,89.518,63.354,124.272,57.275
								c19.734-3.448,38.049-15.136,54.435-34.737c17.677-21.146,33.773-52.275,47.84-92.52
								c15.31-43.803,32.321-77.088,50.561-98.932c16.751-20.061,35.01-31.036,54.268-32.619
								c79.022-6.475,160.495,142.51,214.398,241.111c25.391,46.446,45.442,83.148,53.481,80.486
								c6.406-2.116,5.793-29.033-1.927-84.711c-9.15-65.999-8.616-97.297,1.733-101.482c12.352-4.992,36.937,28.657,70.957,75.244
								c29.033,39.759,65.167,89.24,104.263,128.276c45.771,45.701,86.241,68.002,123.723,68.176
								c0.14,0.001,0.285,0.001,0.425,0.001c34.533,0,66.623-19.586,95.396-58.229l0.803,0.598
								C1034.286,499.5,1001.919,519.225,967.058,519.227z"/>
						</g>
					</g>
					<g>
						<g>
							
								<linearGradient id="SVGID_00000078006503544915117330000014860531152481085063_" gradientUnits="userSpaceOnUse" x1="-305.4536" y1="258.6457" x2="1078.4492" y2="258.6457">
								<stop  offset="0" style="stop-color:#FF25B6"/>
								<stop  offset="0.013" style="stop-color:#F720C0"/>
								<stop  offset="0.0526" style="stop-color:#E112DB"/>
								<stop  offset="0.093" style="stop-color:#D208EE"/>
								<stop  offset="0.1345" style="stop-color:#C902F9"/>
								<stop  offset="0.1787" style="stop-color:#C600FD"/>
								<stop  offset="0.475" style="stop-color:#432AF3"/>
								<stop  offset="0.6457" style="stop-color:#2747ED"/>
								<stop  offset="1" style="stop-color:#000422"/>
							</linearGradient>
							<path style="fill:url(#SVGID_00000078006503544915117330000014860531152481085063_);" d="M982.222,516.339
								c-0.058,0-0.11,0-0.168,0c-38.597-0.067-80.463-22.33-127.989-68.06c-40.476-38.945-77.988-88.285-108.13-127.93
								c-33.681-44.299-60.277-79.296-71.997-74.322c-9.646,4.094-9.609,35.437,0.117,98.635
								c8.602,55.892,9.309,81.911,2.288,84.366c-0.385,0.135-0.79,0.201-1.212,0.201c-9.33,0.003-27.884-32.382-55.357-80.334
								c-56.134-97.973-140.948-246.032-221.055-238.738c-19.037,1.733-37.029,12.434-53.477,31.804
								c-18,21.199-34.683,53.395-49.583,95.695c-13.724,38.958-29.566,69.19-47.086,89.858
								c-16.344,19.279-34.72,30.902-54.618,34.547c-35.784,6.547-77.877-11.987-128.68-56.682
								c-44.69-39.315-90.003-93.01-133.825-144.937C-141.381,74.14-210.173-7.369-257.425,2.813
								c-20.588,4.439-35.984,25.605-47.067,64.706l-0.962-0.272c11.193-39.49,26.835-60.886,47.818-65.411
								c47.848-10.313,116.82,71.425,189.851,157.963c43.798,51.899,89.087,105.564,133.721,144.832
								c50.557,44.478,92.373,62.944,127.839,56.447c19.665-3.6,37.845-15.11,54.035-34.21
								c17.441-20.574,33.223-50.701,46.906-89.543c14.941-42.416,31.684-74.718,49.764-96.011
								c16.623-19.577,34.841-30.394,54.148-32.152c80.764-7.356,165.753,141.043,222.013,239.237
								c26.417,46.107,47.292,82.519,55.372,79.687c6.391-2.235,5.454-28.695-2.946-83.27c-9.941-64.597-9.793-95.347,0.48-99.708
								c12.414-5.279,37.911,28.244,73.184,74.637c30.121,39.617,67.608,88.923,108.027,127.814
								c47.332,45.542,88.971,67.714,127.297,67.78c0.056,0,0.111,0,0.167,0c34.736,0,66.844-18.929,95.434-56.262l0.794,0.608
								C1049.662,497.276,1017.283,516.337,982.222,516.339z"/>
						</g>
					</g>
					<g>
						<g>
							
								<linearGradient id="SVGID_00000103266403826712107690000010755788451511168645_" gradientUnits="userSpaceOnUse" x1="-318.2231" y1="253.7646" x2="1093.9023" y2="253.7646">
								<stop  offset="0" style="stop-color:#FF25B6"/>
								<stop  offset="0.013" style="stop-color:#F720C0"/>
								<stop  offset="0.0526" style="stop-color:#E112DB"/>
								<stop  offset="0.093" style="stop-color:#D208EE"/>
								<stop  offset="0.1345" style="stop-color:#C902F9"/>
								<stop  offset="0.1787" style="stop-color:#C600FD"/>
								<stop  offset="0.475" style="stop-color:#432AF3"/>
								<stop  offset="0.6457" style="stop-color:#2747ED"/>
								<stop  offset="1" style="stop-color:#000422"/>
							</linearGradient>
							<path style="fill:url(#SVGID_00000103266403826712107690000010755788451511168645_);" d="M997.668,513.666
								c-39.426,0.001-82.45-22.144-131.537-67.695c-41.829-38.818-80.727-88.001-111.982-127.521
								c-34.908-44.139-62.491-78.995-74.249-73.764c-9.563,4.254-9.13,35.041,1.362,96.886c9.295,54.795,10.32,80.384,3.327,82.97
								c-0.412,0.152-0.849,0.228-1.307,0.228c-9.464,0.003-28.721-32.104-57.197-79.577
								c-29.269-48.798-65.696-109.528-105.509-157.773c-46.946-56.888-87.313-82.783-123.338-79.189
								c-19.073,1.905-37.015,12.453-53.328,31.351c-17.828,20.653-34.237,51.879-48.772,92.81
								c-13.347,37.584-28.875,66.833-46.152,86.937c-16.138,18.777-34.361,30.22-54.164,34.009
								c-36.492,6.98-79.771-11.289-132.307-55.858c-46.214-39.205-93.245-92.898-138.728-144.822
								c-75.5-86.194-146.811-167.603-194.819-156.794c-20.412,4.598-35.534,25.179-46.23,62.917l-0.962-0.272
								c10.806-38.124,26.17-58.935,46.972-63.621c22.219-5.004,50.016,8.253,87.487,41.723
								c33.239,29.689,69.701,71.316,108.305,115.388c45.458,51.897,92.464,105.561,138.622,144.719
								c52.29,44.362,95.298,62.563,131.472,55.639c41.036-7.852,73.603-47.202,99.562-120.298
								c14.577-41.048,31.048-72.381,48.958-93.128c16.486-19.098,34.649-29.761,53.985-31.692
								c82.422-8.237,171.123,139.61,229.805,237.442c27.46,45.78,49.152,81.92,57.298,78.927
								c6.369-2.355,5.109-28.368-3.966-81.864c-10.726-63.223-10.967-93.437-0.782-97.968c12.469-5.558,38.889,27.841,75.44,74.058
								c31.232,39.492,70.104,88.642,111.877,127.407c48.89,45.37,91.697,67.429,130.857,67.429c0.03,0,0.058,0,0.089,0
								c34.89-0.03,66.973-18.309,95.359-54.327l0.785,0.619c-28.585,36.271-60.933,54.678-96.144,54.708
								C997.729,513.666,997.697,513.666,997.668,513.666z"/>
						</g>
					</g>
					<g>
						<g>
							
								<linearGradient id="SVGID_00000010307353511984262890000014443031545627784834_" gradientUnits="userSpaceOnUse" x1="-331.3071" y1="248.9884" x2="1109.6133" y2="248.9884">
								<stop  offset="0" style="stop-color:#FF25B6"/>
								<stop  offset="0.013" style="stop-color:#F720C0"/>
								<stop  offset="0.0526" style="stop-color:#E112DB"/>
								<stop  offset="0.093" style="stop-color:#D208EE"/>
								<stop  offset="0.1345" style="stop-color:#C902F9"/>
								<stop  offset="0.1787" style="stop-color:#C600FD"/>
								<stop  offset="0.475" style="stop-color:#432AF3"/>
								<stop  offset="0.6457" style="stop-color:#2747ED"/>
								<stop  offset="1" style="stop-color:#000422"/>
							</linearGradient>
							<path style="fill:url(#SVGID_00000010307353511984262890000014443031545627784834_);" d="M1013.394,511.191
								c-40.219,0-84.377-22.039-134.981-67.364c-43.212-38.704-83.524-87.744-115.916-127.149
								c-36.164-43.994-64.728-78.751-76.551-73.24c-9.47,4.411-8.642,34.655,2.605,95.182c9.984,53.719,11.334,78.885,4.377,81.599
								c-8.976,3.514-29.449-29.158-60.451-78.585c-30.494-48.617-68.445-109.122-109.738-157.114
								c-48.704-56.606-90.28-82.17-127.091-78.181c-39.914,4.335-73.928,45.002-101.098,120.872
								c-12.976,36.236-28.189,64.52-45.215,84.066c-15.924,18.281-33.98,29.54-53.668,33.466
								c-37.197,7.415-81.682-10.592-135.994-55.056c-47.774-39.11-96.569-92.823-143.758-144.767
								C-162.322,58.797-236.229-22.552-284.97-11.102c-20.214,4.747-35.056,24.75-45.375,61.156l-0.962-0.272
								c10.426-36.786,25.508-57.02,46.108-61.857c22.555-5.293,51.07,7.767,89.746,41.107
								c34.313,29.579,72.102,71.176,112.109,115.215c47.164,51.917,95.934,105.602,143.651,144.666
								c54.066,44.26,98.277,62.202,135.166,54.848c40.782-8.131,72.883-46.365,98.137-116.887
								c14.217-39.702,30.416-70.081,48.147-90.291c16.341-18.627,34.437-29.137,53.784-31.238
								c37.162-4.039,79.022,21.648,127.957,78.522c41.342,48.05,79.315,108.59,109.827,157.235
								c28.521,45.469,51.064,81.397,59.24,78.185c6.338-2.472,4.75-28.047-4.995-80.484c-11.5-61.882-12.131-91.573-2.045-96.271
								c12.533-5.83,39.882,27.451,77.745,73.512c32.37,39.379,72.655,88.387,115.811,127.039
								c50.413,45.153,94.352,67.109,134.314,67.109c0.115,0,0.229,0,0.345-0.001c34.962-0.11,66.957-17.749,95.098-52.428
								l0.777,0.631c-28.34,34.922-60.596,52.686-95.872,52.797C1013.626,511.191,1013.51,511.191,1013.394,511.191z"/>
						</g>
					</g>
					<g>
						<g>
							
								<linearGradient id="SVGID_00000114782799614071153430000000887564848317568663_" gradientUnits="userSpaceOnUse" x1="-344.7056" y1="244.3055" x2="1125.5947" y2="244.3055">
								<stop  offset="0" style="stop-color:#FF25B6"/>
								<stop  offset="0.013" style="stop-color:#F720C0"/>
								<stop  offset="0.0526" style="stop-color:#E112DB"/>
								<stop  offset="0.093" style="stop-color:#D208EE"/>
								<stop  offset="0.1345" style="stop-color:#C902F9"/>
								<stop  offset="0.1787" style="stop-color:#C600FD"/>
								<stop  offset="0.475" style="stop-color:#432AF3"/>
								<stop  offset="0.6457" style="stop-color:#2747ED"/>
								<stop  offset="1" style="stop-color:#000422"/>
							</linearGradient>
							<path style="fill:url(#SVGID_00000114782799614071153430000000887564848317568663_);" d="M1029.423,508.927
								c-41.035,0.002-86.351-21.946-138.521-67.081c-44.625-38.607-86.385-87.524-119.94-126.83
								c-37.446-43.865-67.022-78.509-78.882-72.74c-9.365,4.561-8.139,34.273,3.859,93.506
								c10.669,52.667,12.345,77.421,5.432,80.262c-0.466,0.191-0.966,0.286-1.498,0.286c-9.729,0.004-30.42-31.576-60.931-78.139
								c-31.752-48.458-71.268-108.766-114.079-156.526c-50.509-56.347-93.326-81.591-130.918-77.19
								c-39.877,4.676-73.536,44.25-100.039,117.626c-12.613,34.919-27.511,62.256-44.279,81.252
								c-15.703,17.79-33.581,28.864-53.136,32.916c-5.793,1.2-11.776,1.803-17.943,1.803
								c-34.185,0.003-74.253-18.484-121.806-56.077C7.368,242.962-43.24,189.207-92.182,137.222
								c-81.042-86.08-157.585-167.388-207.065-155.304c-19.994,4.883-34.548,24.316-44.496,59.412l-0.962-0.273
								c10.054-35.473,24.846-55.135,45.221-60.111c22.881-5.587,52.123,7.283,92.029,40.506
								c35.409,29.48,74.556,71.061,116.002,115.084c48.918,51.959,99.5,105.687,148.816,144.674
								c55.885,44.18,101.327,61.874,138.926,54.079c40.489-8.39,72.113-45.525,96.677-113.528
								c13.861-38.376,29.784-67.813,47.325-87.493c16.187-18.161,34.2-28.519,53.538-30.786
								c37.934-4.444,81.038,20.908,131.779,77.516c42.862,47.816,82.401,108.159,114.172,156.645
								c29.602,45.177,52.992,80.864,61.212,77.477c6.298-2.589,4.381-27.735-6.032-79.138
								c-12.269-60.569-13.291-89.746-3.316-94.604c12.553-6.116,40.877,27.068,80.08,72.99
								c33.532,39.28,75.265,88.166,119.833,126.724c51.978,44.968,97.085,66.837,137.867,66.837c0.194,0,0.387-0.001,0.582-0.002
								c35.019-0.179,66.921-17.189,94.822-50.558l0.768,0.641c-28.1,33.605-60.259,50.736-95.585,50.917
								C1029.816,508.926,1029.616,508.927,1029.423,508.927z"/>
						</g>
					</g>
					<g>
						<g>
							
								<linearGradient id="SVGID_00000034800011498804546560000000947519511608449185_" gradientUnits="userSpaceOnUse" x1="-358.438" y1="239.7143" x2="1141.8574" y2="239.7143">
								<stop  offset="0" style="stop-color:#FF25B6"/>
								<stop  offset="0.013" style="stop-color:#F720C0"/>
								<stop  offset="0.0526" style="stop-color:#E112DB"/>
								<stop  offset="0.093" style="stop-color:#D208EE"/>
								<stop  offset="0.1345" style="stop-color:#C902F9"/>
								<stop  offset="0.1787" style="stop-color:#C600FD"/>
								<stop  offset="0.475" style="stop-color:#432AF3"/>
								<stop  offset="0.6457" style="stop-color:#2747ED"/>
								<stop  offset="1" style="stop-color:#000422"/>
							</linearGradient>
							<path style="fill:url(#SVGID_00000034800011498804546560000000947519511608449185_);" d="M1045.765,506.869
								c-41.87,0.001-88.38-21.872-142.156-66.846c-46.069-38.527-89.309-87.338-124.052-126.559
								c-38.756-43.75-69.364-78.303-81.244-72.265c-9.248,4.706-7.621,33.897,5.119,91.867c11.35,51.64,13.352,75.991,6.491,78.957
								c-0.493,0.213-1.026,0.318-1.598,0.318c-9.865,0.003-31.294-31.335-62.848-77.475
								c-33.044-48.319-74.168-108.456-118.536-156.001c-52.361-56.111-96.467-81.034-134.82-76.213
								c-39.799,5.008-73.083,43.506-98.929,114.426c-12.256,33.628-26.838,60.034-43.34,78.485
								c-15.474,17.303-33.158,28.189-52.561,32.357c-6.185,1.329-12.589,1.995-19.214,1.995
								c-34.728,0.002-75.646-18.305-124.349-55.511c-51.011-38.97-103.482-92.788-154.226-144.835
								c-83.921-86.075-163.19-167.374-213.377-154.653c-19.755,5.008-34.017,23.88-43.602,57.697l-0.962-0.272
								c9.691-34.19,24.188-53.291,44.318-58.394c23.199-5.879,53.181,6.804,94.343,39.924c36.53,29.392,77.073,70.976,119.996,115
								C-49.063,180.894,3.382,234.685,54.335,273.61c57.749,44.116,104.442,61.559,142.746,53.333
								c40.156-8.627,71.287-44.676,95.171-110.208c13.51-37.071,29.153-65.581,46.495-84.739
								c16.023-17.7,33.938-27.907,53.248-30.337c38.705-4.867,83.081,20.162,135.677,76.523
								c44.419,47.601,85.567,107.772,118.631,156.119c30.709,44.905,54.987,80.373,63.222,76.803
								c6.252-2.703,4.005-27.432-7.07-77.824c-13.03-59.286-14.447-87.961-4.596-92.973c12.571-6.395,41.878,26.698,82.446,72.493
								c34.721,39.195,77.933,87.976,123.944,126.455c53.585,44.813,99.892,66.612,141.515,66.612c0.269,0,0.53-0.001,0.798-0.003
								c35.062-0.235,66.868-16.627,94.537-48.718l0.758,0.652c-27.866,32.32-59.926,48.828-95.288,49.065
								C1046.303,506.868,1046.032,506.869,1045.765,506.869z"/>
						</g>
					</g>
					<g>
						<g>
							
								<linearGradient id="SVGID_00000029019733987160660910000000199888917631000232_" gradientUnits="userSpaceOnUse" x1="-372.4946" y1="235.2057" x2="1158.3916" y2="235.2057">
								<stop  offset="0" style="stop-color:#FF25B6"/>
								<stop  offset="0.013" style="stop-color:#F720C0"/>
								<stop  offset="0.0526" style="stop-color:#E112DB"/>
								<stop  offset="0.093" style="stop-color:#D208EE"/>
								<stop  offset="0.1345" style="stop-color:#C902F9"/>
								<stop  offset="0.1787" style="stop-color:#C600FD"/>
								<stop  offset="0.475" style="stop-color:#432AF3"/>
								<stop  offset="0.6457" style="stop-color:#2747ED"/>
								<stop  offset="1" style="stop-color:#000422"/>
							</linearGradient>
							<path style="fill:url(#SVGID_00000029019733987160660910000000199888917631000232_);" d="M1062.411,505.009
								c-42.725,0.003-90.453-21.809-145.881-66.65c-47.543-38.464-92.292-87.183-128.248-126.329
								c-40.092-43.649-71.762-78.123-83.64-71.817c-9.121,4.843-7.093,33.525,6.385,90.266
								c12.024,50.634,14.354,74.591,7.554,77.68c-0.52,0.235-1.086,0.352-1.697,0.352c-10.002,0.003-32.182-31.105-64.792-76.842
								c-34.371-48.204-77.146-108.196-123.111-155.548c-54.26-55.898-99.661-80.512-138.799-75.262
								c-39.678,5.328-72.573,42.763-97.771,111.267c-11.906,32.369-26.173,57.864-42.403,75.78
								c-15.239,16.821-32.717,27.518-51.951,31.792c-39.308,8.732-87.535-8.53-147.437-52.784
								c-52.686-38.923-107.069-92.827-159.662-144.956C-195.91,35.855-277.96-45.469-328.844-32.108
								c-19.495,5.12-33.458,23.437-42.689,56.001l-0.962-0.273c9.335-32.933,23.53-51.479,43.397-56.696
								c23.519-6.174,54.239,6.332,96.681,39.361c37.672,29.317,79.644,70.917,124.079,114.961
								C-55.771,173.35-1.414,227.227,51.214,266.107c59.656,44.071,107.619,61.284,146.626,52.612
								c39.787-8.842,70.414-43.822,93.632-106.94c25.336-68.879,58.501-106.532,98.576-111.913
								c39.468-5.301,85.153,19.415,139.65,75.557c46.018,47.406,88.817,107.432,123.207,155.665
								c31.839,44.652,56.974,79.906,65.263,76.159c6.197-2.815,3.619-27.135-8.113-76.538c-13.786-58.037-15.6-86.22-5.881-91.38
								c12.565-6.667,42.883,26.338,84.845,72.023c35.935,39.122,80.655,87.812,128.141,126.228
								c55.238,44.689,102.768,66.429,145.252,66.429c0.332,0,0.66-0.001,0.991-0.004c35.092-0.28,66.799-16.065,94.241-46.917
								l0.748,0.664c-27.64,31.072-59.596,46.971-94.98,47.253C1063.08,505.008,1062.742,505.009,1062.411,505.009z"/>
						</g>
					</g>
					<g>
						<g>
							
								<linearGradient id="SVGID_00000034792703273639461780000001216931737752707252_" gradientUnits="userSpaceOnUse" x1="-386.8892" y1="230.7964" x2="1175.2158" y2="230.7964">
								<stop  offset="0" style="stop-color:#FF25B6"/>
								<stop  offset="0.013" style="stop-color:#F720C0"/>
								<stop  offset="0.0526" style="stop-color:#E112DB"/>
								<stop  offset="0.093" style="stop-color:#D208EE"/>
								<stop  offset="0.1345" style="stop-color:#C902F9"/>
								<stop  offset="0.1787" style="stop-color:#C600FD"/>
								<stop  offset="0.475" style="stop-color:#432AF3"/>
								<stop  offset="0.6457" style="stop-color:#2747ED"/>
								<stop  offset="1" style="stop-color:#000422"/>
							</linearGradient>
							<path style="fill:url(#SVGID_00000034792703273639461780000001216931737752707252_);" d="M1079.4,503.367
								c-43.599,0-92.586-21.765-149.71-66.504c-49.046-38.413-95.339-87.055-132.536-126.14
								c-41.461-43.566-74.195-77.983-86.091-71.406c-8.986,4.974-6.556,33.16,7.649,88.703c12.7,49.65,15.362,73.223,8.633,76.429
								c-0.545,0.26-1.145,0.387-1.796,0.388c-10.134,0.004-33.07-30.881-66.748-76.225
								c-35.734-48.111-80.206-107.989-127.81-155.172c-56.213-55.715-102.94-80.03-142.865-74.341
								c-39.515,5.634-72.003,42.021-96.561,108.152c-11.564,31.137-25.515,55.741-41.466,73.126
								c-14.997,16.346-32.258,26.85-51.304,31.219c-6.978,1.601-14.252,2.403-21.824,2.404
								c-35.836,0.002-78.483-17.977-129.547-54.483c-54.4-38.892-110.748-92.9-165.239-145.13
								C-207.704,28.227-292.608-53.155-344.167-39.15c-19.217,5.22-32.877,22.993-41.761,54.335l-0.962-0.273
								c8.987-31.708,22.876-49.708,42.46-55.027c23.824-6.468,55.294,5.863,99.045,38.815
								c38.839,29.252,82.275,70.886,128.261,114.963C-62.656,165.869-6.335,219.852,48.006,258.702
								c61.607,44.044,110.856,61.026,150.566,51.918c39.38-9.034,69.492-42.96,92.056-103.718
								c24.695-66.5,57.451-103.104,97.357-108.793c40.253-5.745,87.259,18.669,143.709,74.621
								c47.658,47.236,92.155,107.147,127.909,155.287c32.981,44.405,59.055,79.476,67.31,75.529
								c6.133-2.921,3.219-26.842-9.171-75.277c-14.532-56.821-16.742-84.525-7.164-89.826
								c12.553-6.947,43.904,25.994,87.299,71.591c37.175,39.06,83.439,87.674,132.429,126.042
								c57.445,44.99,106.55,66.69,150.242,66.285c35.105-0.31,66.708-15.497,93.93-45.135l0.736,0.676
								c-27.416,29.851-59.264,45.146-94.657,45.459C1080.173,503.365,1079.787,503.367,1079.4,503.367z"/>
						</g>
					</g>
					<g>
						<g>
							
								<linearGradient id="SVGID_00000155827091977408421420000002444499230156470924_" gradientUnits="userSpaceOnUse" x1="-401.6313" y1="226.4678" x2="1192.333" y2="226.4678">
								<stop  offset="0" style="stop-color:#FF25B6"/>
								<stop  offset="0.013" style="stop-color:#F720C0"/>
								<stop  offset="0.0526" style="stop-color:#E112DB"/>
								<stop  offset="0.093" style="stop-color:#D208EE"/>
								<stop  offset="0.1345" style="stop-color:#C902F9"/>
								<stop  offset="0.1787" style="stop-color:#C600FD"/>
								<stop  offset="0.475" style="stop-color:#432AF3"/>
								<stop  offset="0.6457" style="stop-color:#2747ED"/>
								<stop  offset="1" style="stop-color:#000422"/>
							</linearGradient>
							<path style="fill:url(#SVGID_00000155827091977408421420000002444499230156470924_);" d="M1096.721,501.928
								c-44.496,0-94.773-21.734-153.648-66.409c-50.581-38.381-98.45-86.963-136.913-126c-42.855-43.494-76.7-77.854-88.561-71.015
								c-8.841,5.097-6.005,32.795,8.925,87.17c13.368,48.693,16.362,71.89,9.708,75.211c-9.027,4.505-33.537-27.218-70.65-75.228
								c-37.134-48.038-83.349-107.822-132.631-154.851c-58.212-55.549-106.29-79.569-146.996-73.435
								c-39.31,5.927-71.374,41.28-95.301,105.079c-11.227,29.937-24.863,53.666-40.529,70.528
								c-14.748,15.875-31.78,26.183-50.621,30.635c-7.376,1.744-15.094,2.618-23.153,2.619
								c-36.4,0.003-79.933-17.828-132.208-54.02c-56.154-38.877-114.517-93.011-170.958-145.362
								c-92.988-86.251-180.819-167.72-233.034-153.076c-18.922,5.306-32.275,22.541-40.821,52.689l-0.962-0.272
								c8.648-30.511,22.227-47.972,41.513-53.38c24.121-6.761,56.353,5.406,101.438,38.292
								c40.031,29.201,84.969,70.883,132.546,115.013c56.416,52.328,114.752,106.438,170.847,145.273
								c63.603,44.034,114.159,60.799,154.561,51.251c38.938-9.203,68.523-42.09,90.444-100.541
								c24.064-64.164,56.393-99.733,96.088-105.717c41.023-6.19,89.384,17.921,147.835,73.7
								c49.337,47.081,95.577,106.899,132.732,154.963c34.155,44.183,61.123,79.071,69.413,74.945
								c5.979-2.985,2.635-27.208-10.227-74.053c-15.274-55.634-17.884-82.866-8.459-88.299c12.53-7.228,44.928,25.667,89.772,71.18
								c38.44,39.014,86.28,87.567,136.805,125.904c58.693,44.537,108.775,66.206,153.044,66.206c0.425,0,0.848-0.002,1.272-0.007
								c35.11-0.33,66.607-14.93,93.615-43.392l0.725,0.688c-27.2,28.667-58.938,43.371-94.331,43.704
								C1097.575,501.926,1097.148,501.928,1096.721,501.928z"/>
						</g>
					</g>
					<g>
						<g>
							
								<linearGradient id="SVGID_00000055671036805766371630000011981204813028172472_" gradientUnits="userSpaceOnUse" x1="-416.7134" y1="222.2195" x2="1209.7539" y2="222.2195">
								<stop  offset="0" style="stop-color:#FF25B6"/>
								<stop  offset="0.013" style="stop-color:#F720C0"/>
								<stop  offset="0.0526" style="stop-color:#E112DB"/>
								<stop  offset="0.093" style="stop-color:#D208EE"/>
								<stop  offset="0.1345" style="stop-color:#C902F9"/>
								<stop  offset="0.1787" style="stop-color:#C600FD"/>
								<stop  offset="0.475" style="stop-color:#432AF3"/>
								<stop  offset="0.6457" style="stop-color:#2747ED"/>
								<stop  offset="1" style="stop-color:#000422"/>
							</linearGradient>
							<path style="fill:url(#SVGID_00000055671036805766371630000011981204813028172472_);" d="M1114.383,500.69
								c-0.471,0.001-0.939-0.002-1.412-0.007c-31.436-0.322-66.857-11.443-105.281-33.054
								c-70.532-39.67-138.091-105.942-192.375-159.193c-44.279-43.436-79.253-77.753-91.077-70.659
								c-8.688,5.212-5.446,32.437,10.199,85.678c14.035,47.759,17.364,70.588,10.794,74.02c-0.594,0.311-1.26,0.463-1.995,0.463
								c-10.409,0.002-34.911-30.48-70.785-75.108c-38.571-47.985-86.576-107.706-137.579-154.602
								c-60.264-55.411-109.727-79.143-151.203-72.559c-39.063,6.203-70.686,40.537-93.99,102.048
								c-10.898,28.766-24.221,51.639-39.596,67.986c-14.495,15.41-31.286,25.518-49.907,30.043
								c-7.775,1.89-15.936,2.838-24.492,2.838c-36.972,0.002-81.409-17.694-134.918-53.595
								c-57.947-38.879-118.379-93.16-176.821-145.653c-96.159-86.372-186.99-167.952-239.831-152.677
								c-18.61,5.379-31.65,22.084-39.865,51.068l-0.962-0.272c8.317-29.344,21.581-46.273,40.549-51.756
								c24.403-7.057,57.404,4.954,103.85,37.791c41.245,29.16,87.722,70.906,136.927,115.103
								c58.416,52.47,118.821,106.727,176.71,145.566c65.645,44.044,117.531,60.601,158.616,50.616
								c38.463-9.348,67.512-41.211,88.805-97.412c23.44-61.871,55.325-96.418,94.768-102.681
								c41.797-6.639,91.534,17.178,152.037,72.81c51.058,46.948,99.089,106.7,137.683,154.711
								c35.349,43.977,63.279,78.705,71.536,74.387c5.903-3.084,2.21-26.914-11.289-72.853
								c-16.012-54.482-19.019-81.258-9.755-86.817c12.482-7.483,45.959,25.351,92.292,70.802
								c54.242,53.209,121.748,119.431,192.165,159.035c83.376,46.895,149.079,44.031,200.86-8.758l0.714,0.7
								C1182.418,486.566,1150.336,500.69,1114.383,500.69z"/>
						</g>
					</g>
					<g>
						<g>
							
								<linearGradient id="SVGID_00000183237288148071010310000015048692087177662338_" gradientUnits="userSpaceOnUse" x1="-432.1528" y1="218.0586" x2="1227.4854" y2="218.0586">
								<stop  offset="0" style="stop-color:#FF25B6"/>
								<stop  offset="0.013" style="stop-color:#F720C0"/>
								<stop  offset="0.0526" style="stop-color:#E112DB"/>
								<stop  offset="0.093" style="stop-color:#D208EE"/>
								<stop  offset="0.1345" style="stop-color:#C902F9"/>
								<stop  offset="0.1787" style="stop-color:#C600FD"/>
								<stop  offset="0.475" style="stop-color:#432AF3"/>
								<stop  offset="0.6457" style="stop-color:#2747ED"/>
								<stop  offset="1" style="stop-color:#000422"/>
							</linearGradient>
							<path style="fill:url(#SVGID_00000183237288148071010310000015048692087177662338_);" d="M1132.383,499.661
								c-0.973,0-1.945-0.01-2.923-0.03c-31.983-0.646-68.136-11.953-107.452-33.606C949.831,426.275,880.4,360.397,824.612,307.463
								c-45.736-43.395-81.867-77.664-93.626-70.326c-8.525,5.319-4.878,32.08,11.481,84.218
								c14.699,46.849,18.365,69.318,11.886,72.857c-8.971,4.895-35.209-26.524-74.934-74.089
								c-40.05-47.953-89.892-107.633-142.66-154.418c-62.367-55.295-113.228-78.753-155.49-71.712
								c-38.777,6.46-69.945,39.788-92.638,99.059c-10.577,27.626-23.587,49.664-38.668,65.503
								c-14.236,14.95-30.776,24.856-49.163,29.442c-42.044,10.487-95.532-5.913-163.511-50.146
								c-59.78-38.898-122.333-93.343-182.826-145.997C-244.943,5.331-338.829-76.391-392.29-60.49
								c-18.282,5.44-31.007,21.622-38.901,49.472l-0.962-0.272c7.995-28.206,20.941-44.613,39.578-50.158
								c24.679-7.345,58.452,4.513,106.287,37.313C-243.805,4.996-195.753,46.82-144.88,91.1
								c60.468,52.631,122.994,107.054,182.715,145.913c67.733,44.073,120.961,60.43,162.723,50.015
								c37.958-9.469,66.461-40.325,87.139-94.333c22.829-59.625,54.255-93.165,93.407-99.688
								c42.572-7.093,93.71,16.441,156.317,71.95c52.824,46.835,102.694,106.546,142.765,154.525
								c36.562,43.778,65.437,78.356,73.687,73.853c5.819-3.178,1.776-26.625-12.36-71.681
								c-16.742-53.362-20.152-79.689-11.056-85.365c12.424-7.752,46.995,25.05,94.843,70.45
								c55.747,52.893,125.126,118.723,197.19,158.41c85.334,46.997,152.159,44.871,204.294-6.497l0.701,0.713
								C1200.338,486.112,1168.354,499.66,1132.383,499.661z"/>
						</g>
					</g>
					<g>
						<g>
							
								<linearGradient id="SVGID_00000057123209822025766360000014564879003678765187_" gradientUnits="userSpaceOnUse" x1="-447.9556" y1="213.98" x2="1245.5303" y2="213.98">
								<stop  offset="0" style="stop-color:#FF25B6"/>
								<stop  offset="0.013" style="stop-color:#F720C0"/>
								<stop  offset="0.0526" style="stop-color:#E112DB"/>
								<stop  offset="0.093" style="stop-color:#D208EE"/>
								<stop  offset="0.1345" style="stop-color:#C902F9"/>
								<stop  offset="0.1787" style="stop-color:#C600FD"/>
								<stop  offset="0.475" style="stop-color:#432AF3"/>
								<stop  offset="0.6457" style="stop-color:#2747ED"/>
								<stop  offset="1" style="stop-color:#000422"/>
							</linearGradient>
							<path style="fill:url(#SVGID_00000057123209822025766360000014564879003678765187_);" d="M1150.748,498.842
								c-1.502,0-3.005-0.022-4.521-0.068c-32.542-0.972-69.438-12.469-109.662-34.171
								c-73.849-39.845-145.18-105.355-202.495-157.993c-47.218-43.365-84.519-77.62-96.218-70.03
								c-8.358,5.419-4.303,31.727,12.762,82.794c15.359,45.963,19.363,68.084,12.981,71.724c-0.637,0.363-1.367,0.542-2.188,0.542
								c-10.681,0.003-36.798-30.121-74.936-74.107c-41.565-47.939-93.297-107.602-147.872-154.294
								c-64.522-55.202-116.809-78.391-159.844-70.891c-38.449,6.699-69.145,39.035-91.233,96.107
								c-10.263,26.516-22.962,47.737-37.744,63.074c-13.972,14.496-30.251,24.196-48.388,28.832
								c-42.713,10.919-97.557-5.296-167.667-49.569C-27.93,191.859-92.66,137.229-155.258,84.396
								C-257.992-2.31-355.026-84.21-409.065-67.682c-17.941,5.487-30.348,21.156-37.929,47.901l-0.962-0.272
								c7.681-27.099,20.306-42.991,38.598-48.585c24.944-7.628,59.499,4.084,108.747,36.859
								c43.748,29.114,93.415,71.032,145.997,115.411C-92.04,136.442-27.338,191.051,34.256,229.945
								c69.867,44.118,124.455,60.294,166.887,49.446c37.42-9.565,65.37-39.429,85.446-91.299
								c22.225-57.422,53.176-89.967,91.994-96.731c43.348-7.554,95.904,15.709,160.667,71.117
								c54.632,46.74,106.39,106.434,147.978,154.399c37.805,43.601,67.672,78.032,75.873,73.351
								c5.729-3.268,1.334-26.342-13.436-70.539c-17.468-52.275-21.278-78.166-12.357-83.95
								c12.349-8.006,48.041,24.766,97.439,70.133c57.274,52.601,128.554,118.064,202.293,157.849
								c87.323,47.115,155.297,45.727,207.802-4.24l0.689,0.725C1218.578,485.855,1186.706,498.84,1150.748,498.842z"/>
						</g>
					</g>
					<g>
						<g>
							
								<linearGradient id="SVGID_00000181779310874680700230000014186391382335732911_" gradientUnits="userSpaceOnUse" x1="-464.1216" y1="209.9784" x2="1263.8984" y2="209.9784">
								<stop  offset="0" style="stop-color:#FF25B6"/>
								<stop  offset="0.013" style="stop-color:#F720C0"/>
								<stop  offset="0.0526" style="stop-color:#E112DB"/>
								<stop  offset="0.093" style="stop-color:#D208EE"/>
								<stop  offset="0.1345" style="stop-color:#C902F9"/>
								<stop  offset="0.1787" style="stop-color:#C600FD"/>
								<stop  offset="0.475" style="stop-color:#432AF3"/>
								<stop  offset="0.6457" style="stop-color:#2747ED"/>
								<stop  offset="1" style="stop-color:#000422"/>
							</linearGradient>
							<path style="fill:url(#SVGID_00000181779310874680700230000014186391382335732911_);" d="M1169.491,498.226
								c-2.061,0-4.128-0.041-6.216-0.123c-33.116-1.297-70.771-12.989-111.921-34.752
								c-75.552-39.956-148.813-105.124-207.68-157.487c-48.727-43.344-87.217-77.587-98.84-69.759
								c-8.183,5.508-3.718,31.375,14.05,81.404c16.018,45.103,20.362,66.882,14.084,70.618
								c-8.867,5.285-36.909-25.889-79.347-73.07c-43.123-47.945-96.793-107.615-153.219-154.232
								c-66.731-55.13-120.468-78.061-164.273-70.102c-38.083,6.919-68.294,38.275-89.79,93.198
								c-9.957,25.439-22.347,45.864-36.827,60.707c-13.704,14.048-29.715,23.542-47.588,28.215
								c-43.367,11.338-99.588-4.699-171.879-49.033c-63.566-38.984-130.527-93.82-195.283-146.851
								C-271.374-9.961-371.623-92.063-426.213-74.92c-17.585,5.521-29.671,20.684-36.947,46.354l-0.962-0.272
								c7.375-26.02,19.677-41.405,37.609-47.035c25.195-7.911,60.536,3.666,111.226,36.431
								c45.034,29.109,96.352,71.135,150.683,115.628c64.73,53.01,131.665,107.824,195.172,146.772
								c72.047,44.185,128.015,60.186,171.104,48.918c36.858-9.639,64.248-38.528,83.736-88.319
								c21.632-55.268,52.095-86.832,90.543-93.817c44.113-8.016,98.117,14.985,165.088,70.315
								c56.483,46.665,110.18,106.364,153.326,154.334c39.065,43.436,69.927,77.735,78.091,72.88
								c5.634-3.353,0.886-26.062-14.515-69.425c-18.19-51.22-22.405-76.684-13.666-82.568
								c12.271-8.258,49.094,24.501,100.063,69.84c58.827,52.328,132.038,117.452,207.482,157.352
								c89.353,47.254,158.501,46.604,211.401-1.983l0.676,0.736C1237.146,485.791,1205.408,498.224,1169.491,498.226z"/>
						</g>
					</g>
					<g>
						<g>
							
								<linearGradient id="SVGID_00000092455052926623552590000002273470373686973090_" gradientUnits="userSpaceOnUse" x1="-480.6685" y1="206.054" x2="1282.6006" y2="206.054">
								<stop  offset="0" style="stop-color:#FF25B6"/>
								<stop  offset="0.013" style="stop-color:#F720C0"/>
								<stop  offset="0.0526" style="stop-color:#E112DB"/>
								<stop  offset="0.093" style="stop-color:#D208EE"/>
								<stop  offset="0.1345" style="stop-color:#C902F9"/>
								<stop  offset="0.1787" style="stop-color:#C600FD"/>
								<stop  offset="0.475" style="stop-color:#432AF3"/>
								<stop  offset="0.6457" style="stop-color:#2747ED"/>
								<stop  offset="1" style="stop-color:#000422"/>
							</linearGradient>
							<path style="fill:url(#SVGID_00000092455052926623552590000002273470373686973090_);" d="M1188.622,497.814
								c-2.647,0-5.313-0.065-8.006-0.194c-33.703-1.624-72.134-13.516-114.226-35.346
								c-77.287-40.084-152.509-104.936-212.951-157.047c-52.232-45.033-89.979-77.569-101.501-69.518
								c-8.002,5.59-3.128,31.025,15.34,80.047c16.676,44.266,21.361,65.713,15.192,69.54c-8.814,5.476-37.772-25.593-81.604-72.606
								c-44.724-47.969-100.384-107.668-158.705-154.229c-68.994-55.081-124.199-77.769-168.768-69.343
								c-37.678,7.118-67.385,37.508-88.296,90.327c-18.774,47.417-46.592,76.346-82.681,85.987
								c-44.008,11.752-101.624-4.12-176.141-48.535c-65.52-39.052-134.768-94.111-201.736-147.358
								C-285.083-17.623-388.623-99.948-443.743-82.21c-17.22,5.543-28.984,20.208-35.964,44.833l-0.962-0.272
								c7.079-24.972,19.057-39.859,36.62-45.512c25.432-8.185,61.57,3.262,113.731,36.03
								c46.347,29.116,99.357,71.264,155.48,115.888c66.942,53.226,136.164,108.265,201.625,147.282
								c74.273,44.269,131.639,60.107,175.372,48.428c35.767-9.555,63.358-38.283,82.009-85.389
								c21.046-53.159,51.003-83.755,89.04-90.941c23.848-4.504,51.447,0.102,82.028,13.693
								c26.331,11.703,55.787,30.494,87.55,55.852c58.379,46.606,114.066,106.335,158.813,154.328
								c40.356,43.285,72.232,77.476,80.345,72.438c5.532-3.433,0.429-25.786-15.601-68.338
								c-18.91-50.196-23.529-75.246-14.978-81.22c12.162-8.495,50.151,24.251,102.728,69.58
								c60.402,52.076,135.575,116.887,212.758,156.917c91.414,47.412,161.771,47.499,215.087,0.271l0.663,0.748
								C1256.055,485.921,1224.468,497.811,1188.622,497.814z"/>
						</g>
					</g>
					<g>
						<g>
							
								<linearGradient id="SVGID_00000142134585101689464530000002224668545595292857_" gradientUnits="userSpaceOnUse" x1="-497.5864" y1="202.2086" x2="1301.6387" y2="202.2086">
								<stop  offset="0" style="stop-color:#FF25B6"/>
								<stop  offset="0.013" style="stop-color:#F720C0"/>
								<stop  offset="0.0526" style="stop-color:#E112DB"/>
								<stop  offset="0.093" style="stop-color:#D208EE"/>
								<stop  offset="0.1345" style="stop-color:#C902F9"/>
								<stop  offset="0.1787" style="stop-color:#C600FD"/>
								<stop  offset="0.475" style="stop-color:#432AF3"/>
								<stop  offset="0.6457" style="stop-color:#2747ED"/>
								<stop  offset="1" style="stop-color:#000422"/>
							</linearGradient>
							<path style="fill:url(#SVGID_00000142134585101689464530000002224668545595292857_);" d="M1208.151,497.614
								c-3.265,0-6.562-0.095-9.897-0.284c-34.303-1.95-73.524-14.047-116.576-35.954
								c-79.053-40.228-156.266-104.791-218.308-156.669c-53.865-45.04-92.776-77.582-104.203-69.309
								c-7.815,5.662-2.53,30.678,16.634,78.725c17.331,43.457,22.359,64.581,16.305,68.494c-0.688,0.445-1.512,0.663-2.461,0.663
								c-11.091,0.003-39.742-29.668-81.427-72.833c-46.363-48.012-104.065-107.763-164.326-154.289
								c-71.311-55.056-128.012-77.502-173.337-68.624c-37.242,7.295-66.439,36.735-86.78,87.502
								c-18.219,45.473-45.446,73.431-80.926,83.098c-9.696,2.642-20.079,3.968-31.168,3.968
								c-39.958,0.003-89.174-17.203-149.283-52.047c-67.513-39.137-139.105-94.439-208.339-147.921
								C-299.129-25.299-406.036-107.882-461.65-89.552c-16.842,5.552-28.282,19.729-34.974,43.339l-0.962-0.272
								c6.789-23.955,18.441-38.352,35.623-44.016c25.657-8.458,62.596,2.873,116.253,35.657
								c47.684,29.135,102.425,71.42,160.379,116.188c69.208,53.462,140.773,108.743,208.23,147.847
								c76.546,44.372,135.321,60.065,179.686,47.979c35.162-9.58,62.165-37.339,80.261-82.505
								c20.476-51.102,49.92-80.747,87.516-88.111c24.249-4.749,52.479-0.326,83.903,13.145
								c27.056,11.599,57.415,30.329,90.237,55.669c60.319,46.57,118.049,106.351,164.435,154.385
								c41.663,43.143,74.56,77.224,82.626,72.025c5.426-3.507-0.034-25.515-16.692-67.283
								c-19.625-49.207-24.649-73.851-16.29-79.907c12.04-8.73,51.217,24.021,105.431,69.352
								c62.003,51.846,139.168,116.369,218.119,156.545c93.518,47.587,165.106,48.414,218.858,2.528l0.649,0.761
								C1275.306,486.253,1243.894,497.613,1208.151,497.614z"/>
						</g>
					</g>
				</g>
			</g>
		</g>
	</g>
</g>
<g id="Layer_1">
</g>
</svg>
